# xmcd
#
# Track frame offsets:
# 150
# 16705
# 38246
# 54969
# 72656
# 88591
# 104743
# 121059
# 138889
# 154017
# 171075
# 188541
# 201524
# 217201
# 235614
# 248387
# 269898
# 282833
# 300655
# 317385
#
# Disc length: 4458 seconds
#
#
# Revision: 0
# Processed by: cddbd v1.5.2PL0 Copyright (c) Steve Scherf et al.
# Submitted via: FreeRIP 2.95 
#
DISCID=16116814
DTITLE=Bruno and Marrone - Selecao De Ouro
DYEAR=2006
DGENRE=Sertanejo
TTITLE0=Por Que Choras
TTITLE1=Sera
TTITLE2=Agarrada Em Mim
TTITLE3=Choram As Rosas
TTITLE4=Transito Parado
TTITLE5=Doce Desejo
TTITLE6=Quer Casar Comigo
TTITLE7=Vai Dar Namoro
TTITLE8=Cuida Do Noso Amor
TTITLE9=Ligacao Urbana
TTITLE10=Inevitavel
TTITLE11=Dormi Na Praca
TTITLE12=Que Pescar Que Nada
TTITLE13=Queremos Mais
TTITLE14=Feriado Nacional
TTITLE15=Por Um Minuto
TTITLE16=Pra La Que Eu Vou
TTITLE17=Por Um Gole A Mais
TTITLE18=Um Bom Perdedor
TTITLE19=Dizem Que Um Homem Nao Deve Chorar
EXTD=
EXTT0=
EXTT1=
EXTT2=
EXTT3=
EXTT4=
EXTT5=
EXTT6=
EXTT7=
EXTT8=
EXTT9=
EXTT10=
EXTT11=
EXTT12=
EXTT13=
EXTT14=
EXTT15=
EXTT16=
EXTT17=
EXTT18=
EXTT19=
PLAYORDER=
